<svg width="1300" height="1299" xmlns="http://www.w3.org/2000/svg" xmlns:xlink="http://www.w3.org/1999/xlink" xml:space="preserve" overflow="hidden"><defs><clipPath id="clip0"><rect x="1550" y="588" width="1300" height="1299"/></clipPath></defs><g clip-path="url(#clip0)" transform="translate(-1550 -588)"><path d="M1550 1165.95 1619.63 1235.84 1550 1305.72 1550 1799.29C1550 1847.73 1589.19 1887 1637.52 1887L2131.17 1887 2198.14 1819.78 2265.14 1887 2762.48 1887C2810.81 1887 2850 1847.73 2850 1799.29L2850 1310.97 2779.42 1240.13 2850 1169.29 2850 675.709C2850 627.265 2810.81 588 2762.48 588L2274.93 588 2204.46 658.735 2133.98 588 1637.52 588C1589.19 588 1550 627.265 1550 675.709Z" fill="#FE5000" fill-rule="evenodd"/><path d="M1922 1124.73 1922 1645 1792 1645 1792 1059 1857.31 1059C1893.05 1059 1922 1089.05 1922 1124.73" fill="#FFFFFF" fill-rule="evenodd"/><path d="M2008 1059.07C2016.46 1078.89 2021.13 1100.61 2021.13 1123.53L2021.13 1645 2150 1645 2149.9 1123.53C2149.9 1087.93 2121.14 1059 2085.56 1059Z" fill="#FFFFFF" fill-rule="evenodd"/><path d="M2378 1645 2377.95 1123.64C2377.95 1087.96 2349.28 1059 2313.85 1059L2237 1059C2245.31 1078.72 2249.52 1100.82 2249.52 1123.53L2249.52 1645Z" fill="#FFFFFF" fill-rule="evenodd"/><path d="M1792 959.182 1792 830 2313.51 830C2475.69 830 2607 960.741 2607 1123.17L2607 1645 2477.14 1645 2477.14 1123.17C2477.14 1032.63 2403.99 959.182 2313.56 959.182Z" fill="#FFFFFF" fill-rule="evenodd"/></g></svg>