<svg version="1.2" xmlns="http://www.w3.org/2000/svg" viewBox="0 0 736 900" width="736" height="900">
	<style>
		.s0 { fill: #ee953a } 
		.s1 { fill: #d35590 } 
		.s2 { fill: #000000 } 
	</style>
	<path id="Forma 1" fill-rule="evenodd" class="s0" d="m113 107v514h-7v-514z"/>
	<path id="Forma 2" class="s1" d="m80.75 504.23l-3.55-3.52 128.42-129.2 3.54 3.52zm340.25-133.23v6h-215v-6zm63.43-64.67l4.24 4.24-66.82 66.83-4.24-4.25zm28.57-0.33v6h-29v-6zm60.01 59.77l-4.25 4.25-59.61-59.62 4.24-4.24zm0.99 0.23v45h-6v-45zm31.47 74.6l-4.24 4.24-33.31-33.31 4.25-4.24zm27.52-1.6v6h-31v-6z"/>
	<path id="Text layer 3" class="s2" aria-label="Hola
Que tal"  d="m310.4 200v-17.5h2.3v7.2h8.6v-7.2h2.4v17.5h-2.4v-8.3h-8.6v8.3zm23-11.6q-1.7 0-2.7 1.3-1 1.4-1 3.7 0 2.4 1 3.8 1 1.3 2.7 1.3 1.7 0 2.7-1.3 1.1-1.4 1.1-3.8 0-2.3-1.1-3.6-1-1.4-2.7-1.4zm0-1.8q2.8 0 4.4 1.8 1.6 1.8 1.6 5 0 3.3-1.6 5.1-1.6 1.8-4.4 1.8-2.8 0-4.4-1.8-1.6-1.8-1.6-5.1 0-3.2 1.6-5 1.6-1.8 4.4-1.8zm9.9 13.4v-18.2h2.2v18.2zm14.1-6.6h-2.1q-2.7 0-3.7 0.6-1 0.6-1 2 0 1.2 0.8 1.9 0.7 0.6 2 0.6 1.8 0 2.9-1.2 1.1-1.3 1.1-3.4zm2.2-0.9v7.5h-2.2v-2q-0.7 1.2-1.8 1.8-1.1 0.5-2.7 0.5-2.1 0-3.3-1.1-1.1-1.1-1.1-3 0-2.3 1.4-3.4 1.5-1.1 4.5-1.1h3v-0.2q0-1.5-1-2.3-1-0.8-2.7-0.8-1.2 0-2.2 0.2-1.1 0.3-2.1 0.8v-1.9q1.2-0.5 2.3-0.7 1.1-0.3 2.2-0.3 2.8 0 4.2 1.5 1.5 1.5 1.5 4.5zm-42.1 20.6q-2.6 0-4.1 1.9-1.5 1.9-1.5 5.2 0 3.4 1.5 5.3 1.5 1.9 4.1 1.9 2.6 0 4.1-1.9 1.5-1.9 1.5-5.3 0-3.3-1.5-5.2-1.5-1.9-4.1-1.9zm3.3 15.6l3.1 3.4h-2.8l-2.6-2.8q-0.4 0-0.6 0-0.2 0-0.4 0-3.7 0-5.9-2.4-2.2-2.5-2.2-6.7 0-4.1 2.2-6.6 2.2-2.4 5.9-2.4 3.7 0 5.9 2.4 2.2 2.5 2.2 6.6 0 3.1-1.3 5.3-1.2 2.1-3.5 3.2zm8.3-4.9v-7.9h2.1v7.8q0 1.9 0.7 2.8 0.8 0.9 2.2 0.9 1.8 0 2.8-1.1 1-1.1 1-3v-7.4h2.2v13.1h-2.2v-2q-0.8 1.2-1.8 1.7-1.1 0.6-2.4 0.6-2.3 0-3.5-1.4-1.1-1.4-1.1-4.1zm5.4-8.3zm21 6.4v1h-9.9q0.1 2.3 1.3 3.4 1.2 1.2 3.4 1.2 1.2 0 2.4-0.3 1.2-0.3 2.3-0.9v2q-1.2 0.5-2.4 0.8-1.2 0.2-2.4 0.2-3.2 0-5-1.8-1.9-1.8-1.9-5 0-3.2 1.8-5.1 1.7-1.9 4.7-1.9 2.6 0 4.2 1.7 1.5 1.7 1.5 4.7zm-9.8-0.6l7.7-0.1q-0.1-1.7-1-2.8-1-1-2.6-1-1.8 0-2.9 1-1.1 1-1.2 2.9zm20.6-9.2h2.1v3.8h4.5v1.6h-4.5v7.2q0 1.6 0.5 2 0.4 0.5 1.7 0.5h2.3v1.8h-2.3q-2.5 0-3.4-0.9-0.9-1-0.9-3.4v-7.2h-1.6v-1.6h1.6zm18.1 10.2h-2.1q-2.7 0-3.7 0.6-1 0.6-1 2 0 1.2 0.8 1.9 0.7 0.6 2 0.6 1.8 0 2.9-1.2 1.1-1.3 1.1-3.4zm2.2-0.9v7.5h-2.2v-2q-0.7 1.2-1.8 1.8-1.1 0.5-2.7 0.5-2.1 0-3.3-1.1-1.1-1.1-1.1-3 0-2.2 1.4-3.4 1.5-1.1 4.5-1.1h3v-0.2q0-1.5-1-2.3-1-0.8-2.7-0.8-1.2 0-2.2 0.2-1.1 0.3-2.1 0.9v-2q1.2-0.5 2.3-0.7 1.1-0.3 2.2-0.3 2.8 0 4.2 1.5 1.5 1.5 1.5 4.5zm4.7 7.5v-18.2h2.1v18.2z"/>
</svg>